<?xml version="1.0" encoding="UTF-8"?>
<!-- Generator: Adobe Illustrator 24.0.1, SVG Export Plug-In . SVG Version: 6.00 Build 0)  -->
<svg version="1.1" id="Layer_1" xmlns="http://www.w3.org/2000/svg" xmlns:xlink="http://www.w3.org/1999/xlink" x="0px" y="0px" viewBox="0 0 210 118" style="enable-background:new 0 0 210 118;" xml:space="preserve">
<style type="text/css">
	.st0{fill-rule:evenodd;clip-rule:evenodd;fill:#FFFFFF;}
	.st1{fill-rule:evenodd;clip-rule:evenodd;fill:#F47920;}
	.st2{fill-rule:evenodd;clip-rule:evenodd;fill:#F27D00;}
	.st3{fill:#F27D00;}
</style>
<title>logo-katzkin</title>
<polygon class="st0" points="16.8,34.9 28.7,24.9 42.2,24.9 26.2,37.7 38.7,52.8 24.8,52.8 15.8,41.4 14,52.8 4.1,52.8 10.9,10   20.8,10 "/>
<path class="st0" d="M66.7,52.8h-9.9l0.5-3.1h-0.1c-2.3,2.6-5.6,4.1-9.1,4c-8.3,0-13-6.9-11.7-14.9s8.1-14.9,16.3-14.9  c3.2,0,6.4,1.2,8.1,3.6l0.4-2.7h9.9L66.7,52.8z M46.6,38.8L46.6,38.8c-0.6,3.5,1.4,6.3,5.4,6.3c3.7,0.1,6.9-2.6,7.3-6.3  c0.6-3.4-1.3-6.3-5.3-6.3C50.3,32.5,47.2,35.2,46.6,38.8z"/>
<polygon class="st0" points="87.8,33 84.7,52.8 74.8,52.8 77.9,33 72.5,33 73.8,24.9 79.2,24.9 80.5,16.5 90.4,16.5 89.1,24.9   121.9,24.9 105.7,44.5 117.4,44.5 116.2,52.8 87.9,52.8 104.2,33 "/>
<polygon class="st0" points="157.6,24.9 153.2,52.4 141.1,37.7 157.1,24.9 143.5,24.9 131.6,34.9 135.6,10 125.7,10 118.9,52.8   128.8,52.8 130.6,41.4 139.6,52.8 163,52.8 167.4,24.9 "/>
<path class="st0" d="M181.6,28.4h0.1c2.3-3,5.9-4.7,9.6-4.5c7.5,0,9.8,4.7,8.7,11.6l-2.7,17.2h-9.9l2.1-13.6  c0.4-2.7,1.6-7.4-3.3-7.4c-4,0-5.6,3-6.2,6.5l-2.3,14.5h-9.9l4.4-27.9h9.9L181.6,28.4z"/>
<polygon class="st1" points="149.6,19.8 168.3,19.8 171.1,1.7 "/>
<path class="st0" d="M202.3,28.7c0-1.4,1.2-2.6,2.6-2.6c1.4,0,2.6,1.2,2.6,2.6c0,1.4-1.2,2.6-2.6,2.6S202.3,30.1,202.3,28.7  C202.3,28.7,202.3,28.7,202.3,28.7z M206.9,28.7L206.9,28.7c0-1.1-0.9-2-2-2s-2,0.9-2,2s0.9,2,2,2c1.1,0,2-0.8,2-1.9  C206.9,28.8,206.9,28.7,206.9,28.7z M206.1,30l-0.7-1.1c0.5,0,0.7-0.2,0.7-0.7c0-0.7-0.4-0.8-1.1-0.8h-1.3V30h0.6v-1.1h0.4l0.6,1.1  H206.1z M205.1,28.5L205.1,28.5c0.3,0,0.5-0.1,0.5-0.4s-0.4-0.3-0.6-0.3h-0.6v0.7H205.1z"/>
<path class="st0" d="M3.3,77.2l4.4-7.9h1.1l1.9,7.9H9.5L9,74.8H5.7l-1.3,2.4H3.3z M6.1,73.9h2.7l-0.5-2.2c-0.2-0.7-0.2-1.3-0.3-1.6  c-0.2,0.5-0.4,1-0.7,1.5L6.1,73.9z M21.8,69.3h1l-0.8,4.6c-0.1,0.6-0.3,1.2-0.5,1.8c-0.2,0.4-0.4,0.7-0.8,1c-0.3,0.3-0.6,0.4-1,0.6  c-0.4,0.1-0.9,0.2-1.3,0.2c-0.8,0.1-1.6-0.2-2.2-0.8c-0.4-0.5-0.6-1.4-0.3-2.7l0.8-4.6h1l-0.8,4.5c-0.1,0.4-0.1,0.9-0.1,1.4  c0,0.2,0.1,0.5,0.3,0.7c0.1,0.2,0.3,0.3,0.5,0.4c0.3,0.1,0.5,0.1,0.8,0.1c0.4,0,0.8-0.1,1.2-0.2c0.3-0.1,0.6-0.4,0.8-0.7  c0.3-0.5,0.4-1.1,0.5-1.7L21.8,69.3L21.8,69.3z M29,77.2l1.2-7h-2.6l0.2-0.9H34l-0.2,0.9h-2.6l-1.2,7H29z M37.8,73.3  c0.1-0.8,0.4-1.5,0.8-2.1c0.4-0.6,0.9-1.1,1.5-1.5c0.7-0.4,1.4-0.6,2.2-0.6c0.5,0,1,0.1,1.5,0.3c0.4,0.2,0.8,0.5,1.1,0.8  c0.3,0.4,0.5,0.8,0.6,1.3c0.1,0.6,0.1,1.1,0,1.7c-0.1,0.8-0.4,1.5-0.8,2.2c-0.4,0.6-1,1.1-1.6,1.4c-0.6,0.3-1.3,0.5-2,0.5  c-0.7,0-1.4-0.2-2-0.5c-0.5-0.3-0.9-0.9-1.1-1.4C37.7,74.7,37.7,74,37.8,73.3L37.8,73.3z M38.9,73.3c-0.1,0.6-0.1,1.1,0.1,1.7  c0.1,0.4,0.4,0.8,0.8,1.1c0.4,0.3,0.9,0.4,1.3,0.4c0.8,0,1.6-0.3,2.1-0.9c0.6-0.6,1-1.4,1.1-2.3c0.1-0.6,0.1-1.1,0-1.7  c-0.1-0.4-0.4-0.8-0.7-1.1c-0.4-0.3-0.9-0.5-1.4-0.4c-0.4,0-0.8,0.1-1.2,0.2c-0.4,0.1-0.7,0.4-1,0.7c-0.3,0.3-0.5,0.6-0.7,1  C39.1,72.3,38.9,72.8,38.9,73.3L38.9,73.3z M49.8,77.2l1.3-7.9h1.6l0.9,5.6l0.2,1.2l0.6-1.3l2.8-5.5h1.4l-1.3,7.9h-1l1.1-6.6  L54,77.2h-1l-1.1-6.7l-1.1,6.7L49.8,77.2z M63.1,73.3c0.1-0.8,0.4-1.5,0.8-2.1c0.4-0.6,0.9-1.1,1.5-1.5c0.7-0.4,1.4-0.6,2.2-0.6  c0.5,0,1,0.1,1.5,0.3c0.4,0.2,0.7,0.5,1,0.8c0.3,0.4,0.5,0.8,0.6,1.3c0.1,0.6,0.1,1.1,0,1.7c-0.1,0.8-0.4,1.5-0.8,2.2  c-0.4,0.6-1,1.1-1.6,1.4c-0.6,0.3-1.3,0.5-2,0.5c-0.7,0-1.3-0.2-1.9-0.5c-0.5-0.3-0.9-0.9-1.1-1.4C63,74.7,63,74,63.1,73.3  L63.1,73.3z M64.2,73.3c-0.1,0.6-0.1,1.1,0.1,1.7c0.1,0.4,0.4,0.8,0.8,1.1c0.4,0.3,0.9,0.4,1.3,0.4c0.8,0,1.6-0.3,2.1-0.9  c0.6-0.6,1-1.4,1.1-2.3c0.1-0.6,0.1-1.1,0-1.7c-0.1-0.4-0.4-0.8-0.7-1.1c-0.4-0.3-0.9-0.4-1.4-0.4c-0.4,0-0.8,0.1-1.2,0.2  c-0.4,0.1-0.7,0.4-1,0.7c-0.3,0.3-0.5,0.6-0.7,1C64.3,72.3,64.2,72.8,64.2,73.3L64.2,73.3z M77.1,77.2l1.2-7h-2.6l0.2-0.9h6.2  l-0.2,0.9h-2.6l-1.2,7H77.1z M85.7,77.2l1.3-7.9h1l-1.3,7.9H85.7z M94.6,77.2l-1.7-7.9H94l1.1,5.7c0.1,0.4,0.1,0.8,0.2,1.3  c0.2-0.4,0.4-0.8,0.7-1.3l3.1-5.7h1.1l-4.4,7.9L94.6,77.2z M103.5,77.2l1.3-7.9h5.7l-0.2,0.9h-4.7l-0.4,2.4h4.4l-0.2,0.9h-4.4  l-0.5,2.7h4.8l-0.2,0.9H103.5z M122,77.2l1.3-7.9h1l-1.2,7h3.9l-0.2,0.9L122,77.2z M132,77.2l1.3-7.9h5.6l-0.2,0.9h-4.7l-0.4,2.4  h4.4l-0.2,0.9h-4.4l-0.5,2.7h4.9l-0.2,0.9H132z M142.2,77.2l4.4-7.9h1.1l1.9,7.9h-1.2l-0.5-2.4h-3.3l-1.3,2.4H142.2z M145,73.9h2.7  l-0.5-2.2c-0.1-0.7-0.2-1.3-0.3-1.6c-0.2,0.5-0.4,1-0.7,1.5L145,73.9z M156.2,77.2l1.2-7h-2.6l0.1-0.9h6.2l-0.2,0.9h-2.6l-1.2,7  H156.2z M164.7,77.2l1.3-7.9h1l-0.6,3.2h4.1l0.6-3.2h1l-1.3,7.9h-1l0.6-3.7h-4.1l-0.6,3.7H164.7z M176.4,77.2l1.3-7.9h5.7l-0.2,0.9  h-4.7l-0.4,2.4h4.4l-0.1,0.9H178l-0.4,2.7h4.8l-0.2,0.9H176.4z M187.5,77.2l1.3-7.9h3.5c0.5,0,0.9,0,1.4,0.1  c0.2,0.1,0.5,0.2,0.6,0.4c0.2,0.2,0.3,0.4,0.4,0.7c0.1,0.3,0.1,0.7,0.1,1c-0.2,1.2-1.3,2.2-2.6,2.2c0.3,0.1,0.5,0.3,0.7,0.6  c0.2,0.3,0.4,0.5,0.5,0.8l1,2.1h-1.3l-0.8-1.6c-0.2-0.4-0.4-0.7-0.5-1c-0.1-0.2-0.3-0.4-0.4-0.6c-0.1-0.1-0.3-0.2-0.4-0.3  c-0.2,0-0.4,0-0.6,0h-1.2l-0.6,3.5L187.5,77.2z M189.3,72.8h2.2c0.5,0,1.1-0.1,1.6-0.4c0.3-0.2,0.5-0.6,0.6-1  c0.1-0.8-0.3-1.3-1.5-1.3h-2.5L189.3,72.8z"/>
<path class="st1" d="M3.2,61.9c-0.4,0-0.7-0.4-0.6-0.8c0-0.3,0.3-0.6,0.6-0.6h192.5c0.4,0,0.7,0.4,0.6,0.8c0,0.3-0.3,0.6-0.6,0.6  H3.2z"/>
<path class="st2" d="M73.7,84.5c0.2-0.1,0.3-0.2,0.5-0.3s0.2-0.1,0.3-0.1c0.3-0.3-0.2-1.2-0.6-1.5c-0.5-0.4-0.9-0.9-1.3-1.4  c-0.8-0.4-0.9,0.5-1.4,0.8c-1.3,1.5-2.4,2.6-3.8,4.1s-2.8,3.1-4.2,4.8c-0.7,0.8-1.4,1.6-2,2.5c-1.7,2.2-3.2,4.6-4.5,7  c-0.3,0.5-0.5,1.1-0.6,1.7c0,0.4,0.2,0.5,0.3,0.8c0,0.1,0,0.3,0.1,0.4c-0.1,0-0.2,0-0.1,0.2s0.1,0.1,0.2,0.2  c0.2,0.5,0.6,0.4,1.1,0.7c0.3-0.1,0.4,0.1,0.6,0c0,0.1,0.1,0.1,0.1,0.1c0.2-0.1,0.4-0.1,0.6-0.1c0.3-0.2,5-3.2,5.3-3.4  c0-0.1-0.1-0.1,0-0.2c0.3,0.1,0.6,0,0.8-0.3c-0.3-0.2-0.4,0.4-0.7,0.1c0.2,0,0.3-0.2,0.4-0.3c0.3-0.1,0.4-0.3,0.8-0.4  c0.1,0,0.1-0.2,0.3-0.1c0.3-0.4,0.9-0.5,1.2-0.9c0.1,0,0.1,0,0.2,0c0.1-0.3,0.4-0.4,0.7-0.6c0-0.1,0-0.2,0.1-0.2  c0.4-0.2,0.7-0.4,1.1-0.6c0-0.1,0.1-0.1,0.1-0.2c0.7-0.5,1.4-1,2.1-1.5c0-0.1,0-0.1,0-0.2c0.2-0.1,0.3-0.2,0.5-0.3  c0.2-0.1,0.4-0.2,0.4-0.3c-1.2,0.6-2.4,1.1-3.6,1.7s-2.4,1.2-3.6,1.8c-0.4,0.2-0.8,0.3-1.3,0.6s-5.2,3.2-5.6,3.2  c0.1-0.4,0.3-0.8,0.6-1c0-0.1-0.1-0.1-0.1-0.2c0.4-0.8,0.9-1.5,1.4-2.2l0.2-0.1c0-0.1,0-0.2,0-0.2c0.3-0.4,0.6-0.8,0.9-1.2  c0,0,0.1,0.1,0.2,0s0.2-0.2,0.2-0.3s-0.1,0.1-0.1,0s0-0.2,0.1-0.2s0,0.1,0.1,0.1c0.2-0.1,0.3-0.3,0.4-0.6c-0.1,0-0.2,0.3-0.4,0.2  c0.1,0,0.1-0.2,0.1-0.2c0.2-0.2,0.3-0.4,0.5-0.6h0.2c0-0.1-0.1,0-0.1-0.1c0.2-0.4,0.5-0.7,0.8-1c0.2-0.5,0.6-0.9,1-1.2  c0.1-0.2,0.2-0.4,0.3-0.4c-0.2,0.3-0.4,0.5-0.6,0.9c0.2-0.1,0.3-0.3,0.5-0.4c0-0.1,0-0.1,0-0.2c0.8-0.9,1.4-1.8,2.3-2.7  c0-0.1,0-0.1,0.1-0.2c0.3-0.2,0.5-0.7,0.8-0.8c0-0.1,0.7-0.4,0.4,0c0.3-0.2,0.6-0.5,0.9-0.8c0.1-0.1,1.7-1.6,2-1.8  c0.1-0.1,0.2-0.2,0.3-0.3c0.3-0.3,0.7-0.6,1-0.9c0.1-0.1,0.2-0.2,0.3-0.3c0.1-0.1,0.1-0.2,0.2-0.2C73.3,84.9,73.2,84.9,73.7,84.5  L73.7,84.5z M149.6,95.3c-0.1,0-0.6,0.1-0.4,0.1S149.5,95.4,149.6,95.3z M141.4,101.7c-0.8,0.5-1.5,1.1-2,1.9c0,0-0.1,0.1-0.1,0.1  c-0.2,0.2-0.4,0.4-0.6,0.6c0.6-1.2,1.2-2.4,1.8-3.5c-2.1,0.3-4.4,1.4-6.6,1.7c-0.2,0.1-0.6,0.1-1.1,0.2c-0.2-0.1-0.3-0.3-0.6-0.2  c0-0.3-0.3-0.2-0.5-0.4c0-0.2,0-0.3,0.1-0.6c3.4-2.3,7.1-3.9,11.1-5c1.6-2.8,2.9-5.4,4.5-8.2c-0.2-0.8-0.8-1.2-0.9-2.1  c0-0.6,0.1-1.3,0.4-1.9c0.1-0.4,0.3-0.8,0.6-1.1c0.9-1.3,2.1-2.4,3.5-3c0.1,0,0.1,0.1,0.1,0.1c0.3-0.3,0.8-0.1,1,0.3  c0,0.1,0,0.3,0.1,0.4c0.6,1,1.5,1,2.5,1.2c1.9,1,3.7,2.3,5.3,3.7c1.2,1.4,2.1,3.2,2.4,5.1c0,0.6-0.1,1.2-0.3,1.8  c-0.1,0.4-0.4,0.5-0.7,0.8c-0.1,0.1-0.1,0.2-0.3,0.3c-0.4,0.3-0.9,0.5-1.4,0.7c-0.1,0.1-0.2,0.2-0.3,0.2s-0.4,0.1-0.5,0.2  c0.9,0.2,1.8,0.4,2.7,0.7v0.1c-0.8-0.2-1.7-0.3-2.5-0.3c-0.3-0.1-0.6-0.1-0.9-0.1c-0.3,0-0.6,0.2-1,0.3c-0.5,0.1-1,0.6-1.5,0.4  c-0.6,0.3-1.2,0.5-1.8,0.6c-0.1,0-0.1-0.1-0.2-0.1c-0.7,0.3-1.5,0.5-2.2,0.7c-0.3,0.1-0.7,0.2-1,0.3c-0.1,0-0.2,0.1-0.3,0.1  c-0.1,0-0.2,0.1-0.3,0.1s-0.1-0.1-0.2,0c-0.4,0.1-0.8,0.3-1.2,0.4c-0.6,0.2-1.1,0.3-1.7,0.4c-0.8,0.3-2.1,0.7-3.1,1.1  c-0.4,0.2-0.9,0.2-1.2,0.3s-0.4,0.7-0.7,0.9S141.5,101.4,141.4,101.7L141.4,101.7z M146.1,94.8C146.1,94.7,146.1,94.7,146.1,94.8  C146.1,94.7,146.1,94.7,146.1,94.8c-0.2-0.1,0-0.2,0.1-0.2c0.3-0.4,0.6-0.9,0.7-1.4c0.7-0.7,1.2-1.5,1.6-2.4c1.1-1,3.4-6.7,3.8-6.5  c0.1,0,1.5,0.6,1.6,0.6c2.1,0.8,4.1,1.9,5.9,3.4c1.7,1.6,2.3,3.4-0.9,5c-0.7,0.3-1.4,0.7-2.1,1c-0.5,0.1-1,0.4-1.5,0.5s-0.9,0-1.3,0  c-2.8,0.1-5.6,0.4-8.3,1C145.6,95.5,145.7,95,146.1,94.8L146.1,94.8z M147.7,95.6c0.2-0.1,0.5,0,0.6-0.2  C148.2,95.5,147.8,95.5,147.7,95.6z M152.3,94.9c0.8-0.1,1.5-0.1,2.3-0.1c-3.8,1.4-7.2,2.6-11.1,3.8c0.1-0.1,0.2-0.2,0.3-0.3  c0.2-0.8,0.8-1.1,1.1-1.7c0.7-0.4,1.5-0.6,2.3-0.7c0.1,0,0.1,0,0-0.2c0.6-0.1,1.2-0.2,1.8-0.4c0,0-0.1,0-0.1,0  c0.6-0.1,1.3-0.3,2-0.4c0.3,0,0.7,0,1,0S152.1,94.8,152.3,94.9L152.3,94.9z M141.8,97.5c-1.1,0.3-2.2,0.8-3.3,1.3  c-1.8,0.6-3.5,1.5-5,2.7c2.7-0.5,5.3-1.2,7.9-2.2c0.4-0.6,0.7-1.3,1.1-1.9C142.2,97.4,141.9,97.6,141.8,97.5L141.8,97.5z   M166.3,94.5L166.3,94.5L166.3,94.5z M168.1,93.1L168.1,93.1L168.1,93.1z M170.3,91.3L170.3,91.3C170.3,91.2,170.3,91.2,170.3,91.3  C170.3,91.2,170.3,91.2,170.3,91.3L170.3,91.3z M170.3,91.1L170.3,91.1c0-0.1-0.1,0,0-0.1S170.3,90.9,170.3,91.1c0,0-0.1,0-0.2-0.1  s0.1-0.1,0.1-0.1s0,0,0,0s0,0,0-0.1l0,0c-0.1-0.2,0.1,0-0.1,0.1s-0.2-0.2-0.2-0.1c0-0.1-0.1-0.1-0.1-0.1s-0.1,0-0.1,0s0.1-0.1,0-0.1  s0-0.1-0.1-0.1h-0.1c-0.2,0-0.5,0-0.7,0.1c-0.2,0.1-0.4,0.2-0.6,0.2c-0.7,0.3-1.4,0.7-2.1,1.2c-0.3,0.1-0.5,0.3-0.8,0.4  c-0.1,0,0-0.1-0.1-0.1l-0.4-0.5c-0.2-0.2-0.6-0.7-0.8-0.8c0,0-0.1,0-0.1,0.1s0,0.1-0.1,0.1s-0.1,0.2-0.1,0.2  c-0.1,0.2-0.2,0.4-0.3,0.6c-0.1,0.2-0.2,0.3-0.3,0.5c-0.1,0.2-0.2,0.4-0.3,0.6c-0.1,0.2-0.2,0.4-0.3,0.6c-0.1,0.1-0.1,0.2-0.2,0.2  c-0.4,0.8-0.8,1.5-1.1,2.2c-0.1,0.1-0.1,0.2-0.1,0.3c0,0.1-0.1,0.3-0.2,0.4c-0.1,0.1-0.1,0.3-0.2,0.4c-0.1,0.2-0.3,0.5-0.4,0.8  c-0.1,0.1-0.1,0.2-0.1,0.3s0.1,0,0.1,0s-0.1,0.3,0,0.3s0,0,0,0.1s0.1,0.1,0.2,0.1s0.1,0.1,0.2,0.1s0.1,0,0.2,0.1s0.2,0,0.2,0.1  c0,0,0.1,0,0.1,0c0.7-1.6,1.8-2.9,3.1-4.1c0,0,0.1,0,0-0.1s0.1,0,0.1,0s0.1-0.2,0.2-0.2s0.2-0.2,0.4-0.4c0.2-0.1,0.4-0.2,0.5-0.4  l0,0c0.1-0.1,0.2-0.2,0.3-0.3c0.8-0.6,1.6-1.2,2.5-1.7c-0.1,0.2-0.3,0.3-0.5,0.5c-0.1,0.2-0.3,0.3-0.4,0.5c0,0,0,0-0.1,0.1l-0.1,0.1  l0,0c-0.2,0.2-0.4,0.5-0.6,0.8l0,0l0,0c0,0,0.1,0.1,0,0.1c-0.1,0-0.1,0.1-0.1,0.1l0,0c0,0,0,0.1-0.1,0.1s0,0,0,0.1s0,0,0,0  c-0.2,0.4-0.6,0.8-0.8,1.3c0,0.1-0.1,0.1,0,0.1c0.2-0.2,0.2-0.4,0.4-0.6s0.2-0.1,0.2-0.2s0.1-0.2,0.3-0.3c0,0,0.1-0.1,0.1-0.1  s0.1-0.1,0.1-0.1s0.2-0.3,0.4-0.3l0.2-0.1c0.2-0.2,0.2-0.3,0.4-0.4l0,0l0.1-0.1c0.1,0,0.1,0,0.2,0c0-0.1,0.1-0.1,0.1-0.2  c0.1-0.1,0.1-0.1,0.2-0.1s0-0.1,0.1-0.1c0.1-0.1,0.2-0.2,0.4-0.3c0,0.1-0.1,0.1-0.2,0.2c0.1,0,0.2-0.1,0.2-0.2l0,0  c0.1,0,0.1,0,0.1-0.1s0,0-0.1,0c0.1,0,0.1-0.1,0.2-0.1c0.1,0,0.1,0,0,0l0.1-0.1l0,0c0.1,0,0.1-0.1,0.2-0.1c0,0-0.1,0.1-0.1,0.1  s0.2-0.2,0.4-0.3c0,0,0,0,0-0.1c0.3-0.2,0.6-0.4,0.9-0.7c0,0,0,0,0-0.1s0,0,0.1-0.1s0,0,0,0v-0.1c-0.1,0-0.1-0.1,0-0.2c0,0,0,0,0,0  L170.3,91.1z M166.1,93C166,93,166,93,166.1,93c-0.2,0.1-0.4,0.3-0.6,0.5c0-0.1,0.1-0.1,0.1-0.2C165.7,93.3,165.8,93.1,166.1,93  L166.1,93c0,0,0.1-0.1,0.2-0.2C166.2,92.9,166.2,93,166.1,93L166.1,93z M169.1,90.8c0,0,0.1-0.1,0.1,0s-0.3,0-0.3,0  C168.9,90.8,169,90.8,169.1,90.8c-0.1,0-0.2,0-0.4,0l0,0c0.2-0.1,0.5-0.1,0.7-0.1C169.3,90.7,169.2,90.7,169.1,90.8L169.1,90.8z   M166.1,94.1L166.1,94.1C166.1,94.1,166.1,94.1,166.1,94.1z M168.9,96.1c0,0,0,0.1,0,0.1c-0.1,0-0.1,0.2-0.2,0.3c0,0,0,0.1,0,0.1  c0,0-0.1,0-0.1,0.1s0,0,0,0l0,0c-0.1,0.1-0.1,0.2-0.2,0.3s-0.1,0.2-0.1,0.3c-0.1,0-0.1,0.1-0.2,0s-0.1,0.2-0.1,0.4  c0.2-0.1,0.4-0.3,0.6-0.4c0.5-0.4,1-0.9,1.5-1.3c0.6-0.7,1.2-1.3,1.8-2c0,0.1,0,0.2,0,0.2c-0.1,0.2-0.2,0.3-0.4,0.4  c0,0-0.1,0.1-0.1,0.1c-0.1,0.2-0.3,0.3-0.4,0.6c0,0,0,0.1-0.1,0.1l-0.2,0.2c-0.1,0.1-0.2,0.3-0.4,0.4c0,0.1-0.1,0.3-0.2,0.3  c-0.1,0.1-0.1,0.3-0.3,0.4c0,0-0.1,0.1-0.1,0.2c0,0,0,0-0.1,0c-0.1,0.1-0.2,0.3-0.3,0.4c0,0.1-0.2,0.2-0.2,0.3s-0.1,0.2-0.2,0.2  s-0.2,0.2-0.3,0.3s-0.2,0.2-0.4,0.2s-0.1-0.1-0.2-0.1s-0.1,0-0.1,0l-0.2-0.1l-0.3-0.2c-0.1-0.1-0.1-0.2-0.1-0.4  c0-0.4,0.1-0.7,0.3-1.1c0.1-0.3,0.3-0.7,0.5-1s0.2-0.4,0.4-0.6c0.4-0.6,0.8-1.2,1.2-1.7c0.2-0.3,0.5-0.6,0.7-1c0,0,0.1-0.1,0.1-0.1  l0.2-0.2c0.1-0.4,0.3,0,0.5,0c0.1,0.2,0.8,0.7,0.7,1c-0.1,0.2-0.3,0.5-0.5,0.6c-0.1,0.1-0.1,0.1-0.2,0.2s-0.1,0.1-0.2,0.2  s-0.1,0.2-0.2,0.2s-0.2,0.2-0.3,0.3c-0.2,0.2-0.4,0.4-0.6,0.6c0,0.1-0.2,0.1-0.2,0.2s-0.1,0-0.2,0.1c0,0-0.1,0.1-0.1,0.2  c0,0-0.1,0.2-0.1,0.2c-0.1,0-0.1,0.1-0.2,0.2c-0.1,0-0.1,0.1-0.1,0.1L168.9,96.1z M175.5,88.7c-1,0.3-2,0.6-3,1.1  c-0.2,0.1-0.4,0.2-0.7,0.2h-0.1c-0.5,0-0.8,0.3-1.2,0.5c0.1,0.3,0.4,0.6,0.5,1c0.1,0,0.1,0.1,0.1,0.2c0.2,0,0.3,0.1,0.4,0  c0.4,0,0.7-0.3,1-0.4h0.1c0.1,0,0.1-0.1,0.2-0.2c0.3-0.2,0.8-0.3,1.1-0.5c0-0.1,0-0.1,0.1-0.1c-0.1-0.1,0-0.2,0-0.2  c0-0.1,0-0.1,0-0.2c0.1-0.1,0.2-0.1,0.3-0.2c-0.1-0.1,0.1-0.1,0-0.2c0.1,0,0.1,0,0.2-0.1c0.1,0,0,0,0,0c0.1-0.1,0.1-0.2,0.2-0.3  C175.1,89.2,175.1,88.9,175.5,88.7C175.4,88.7,175.5,88.8,175.5,88.7L175.5,88.7z M95.7,93c-0.2-0.1-0.4-0.1-0.5-0.2  s-0.2-0.1-0.3-0.2c-0.1-0.1-0.2-0.1-0.2-0.1c-0.3-0.1-0.5-0.1-0.8,0c-1.2,0.1-2.3,0.5-3.3,1.1c-0.5,0.3-1,0.6-1.4,1  c-0.1,0.2-0.2,0.2-0.4,0.3s0.1,0.1,0,0.2l-0.3,0.2c0,0-0.1,0.1-0.1,0.2s-0.2,0.1-0.2,0.2c0.2-0.1,0.4-0.2,0.5-0.4  c0.1-0.1,0.3-0.1,0.3-0.2s0.2-0.1,0.3-0.2s-0.2,0.1-0.2,0.2c-0.7,0.6-1.4,1.2-2,1.9c-0.2,0.1-0.3,0.3-0.5,0.4  c0.2-0.3,0.4-0.5,0.6-0.7c0.1-0.1,0.1-0.2,0.1-0.3c0,0,0,0.1-0.1,0s0.1,0,0.2-0.1s0-0.1,0.1-0.1s0.1,0,0.1-0.2c0,0-0.1,0.1-0.2,0.1  c0,0,0-0.1,0-0.1c0,0.1,0,0.1,0,0.1c-0.2,0-0.3,0.3-0.5,0.3c-0.5,0.5-1,1.1-1.4,1.7c-1.1,1.9-0.3,2.9-0.4,2.3  c0.2,0.2,0.5,0.3,0.8,0.4c0.3,0,0.7-0.1,1-0.2c0.1-0.1,0.3-0.1,0.4-0.1c0.1-0.1,0.3-0.1,0.4-0.1c0.3-0.4,0.9-0.1,1.2-0.5  s1.3-0.5,1.8-0.9l0.3-0.2c0.2-0.1,0.4-0.2,0.7-0.3c0.1,0,0.2-0.1,0.3-0.1c0.5-0.3,1-0.5,1.4-0.7c0.1-0.1,0.2-0.1,0.3-0.2  c0.5-0.3,1-0.6,1.6-0.8c-0.5,0.2-1,0.4-1.5,0.7c-0.1,0-0.2,0.1-0.3,0.1l-1.5,0.6c-0.1,0-0.2,0-0.3,0c-0.2,0.1-0.5,0.2-0.7,0.2  L91,98.5c-1.1,0.4-2.2,0.6-3.3,0.8c-0.1,0.1-0.2,0.1-0.3,0.1c-0.1,0-0.2,0-0.2,0c-0.1,0-0.3,0-0.4-0.1c0.1-0.2,0.3-0.2,0.4-0.3  c0.1-0.1,0.3-0.2,0.4-0.2c0.8-0.5,1.6-1,2.5-1.5c0.1-0.1,0.2-0.1,0.4-0.2l1.1-0.5l0.2-0.1c0.1,0,0.2-0.1,0.2-0.1  c0.1,0,0.1-0.1,0.2-0.1c0.5-0.2,0.8-0.3,1.3-0.5c0.1,0,0.1-0.1,0.2-0.1c0.6-0.1,1-0.3,1.5-0.4c0.2-0.1,0.4-0.1,0.6-0.1  c0.1,0.1,0.3,0.1,0.4,0c0,0,0.1-0.1,0.1-0.2s0.1,0,0.2,0s-0.1,0-0.1-0.1c0-0.1,0-0.3-0.1-0.4c0-0.1-0.1-0.1,0-0.2s-0.2-0.5-0.1-0.7  c-0.1-0.1-0.4-0.2-0.5-0.4C95.7,93.2,95.7,93.1,95.7,93L95.7,93z M121.4,97.8c0.8-1.1,1.6-2.1,2.5-3.1c0.3-0.3,0.4-0.5,0.6-0.8  c0.1-0.1,0.1-0.3,0.2-0.4c0.1-0.1,0.2-0.2,0.3-0.3c0.1-0.1,0.1-0.2,0.1-0.3c0-0.1,0-0.1,0-0.2c0-0.1-0.1-0.2-0.2-0.3s-0.9-0.3-1-0.4  s-0.5-0.1-0.5,0.2c-0.4,0.6-0.6,1-1,1.6c-0.1,0.2-0.3,0.4-0.4,0.5c-0.1,0.2-0.2,0.4-0.4,0.6c-0.2,0.2-0.3,0.4-0.4,0.5  c-0.7,0.9-1.5,1.9-2.1,2.8c-0.2,0.2-0.3,0.4-0.3,0.6c0,0.1,0.5,0.3,0.6,0.4s0.3,0.1,0.4,0.2c0.1,0,0.2,0.1,0.3,0.2  c0.1,0.1,0.2,0.2,0.4,0.1c0.3-0.2,0.7-0.4,1-0.6c0,0,0.1-0.1,0.1-0.1c0.1,0,0.2-0.1,0.3-0.2c0.1-0.1,0.2-0.1,0.3-0.2  c0.2-0.2,0.5-0.4,0.8-0.6c0.1,0,0.1-0.1,0.2-0.2c0.1-0.1,0.2-0.2,0.3-0.2c0,0,0.1-0.1,0.1-0.1c0.2-0.1,0.3-0.2,0.4-0.3  c0.1-0.1,0.3-0.3,0.4-0.4c0.1-0.1,0.3-0.1,0.4-0.3c0,0.2-0.2,0.3-0.2,0.5c-0.2,0.3-0.4,0.6-0.6,1c-0.1,0-0.1,0.1-0.1,0.2  c-0.3,0.6-0.6,1.2-0.8,1.8c0,0.1,0,0.1,0,0.1c-0.1,0.3,0,0.7,0.3,0.9c0-0.1-0.2-0.3-0.2-0.4c0,0,0,0.1,0.1,0.2  c-0.1-0.3-0.1-0.5-0.1-0.8c0,0.2,0,0.4,0.1,0.6h0.1c-0.1-0.3-0.1-0.6,0-0.8c0.2-0.4,0.4-0.8,0.6-1.1c0.2-0.1,0.2-0.2,0.2-0.3  c0.4-0.7,0.9-1.4,1.4-2c0,0,0,0,0-0.1c0.1-0.1,0.2-0.2,0.3-0.3c0.1,0,0.1-0.1,0.2-0.2s0,0-0.1,0.1s0.2-0.2,0.3-0.2  c0-0.1,0-0.1,0-0.1s0.2-0.1,0.2-0.2s0,0,0,0s0-0.1,0.2-0.1c0.1-0.1,0.2-0.1,0.3-0.2c-0.1,0.1-0.2,0.2-0.4,0.3  c-0.1,0.2-0.2,0.4-0.3,0.7c0,0.1-0.1,0.1-0.1,0.1s0,0.1,0,0.1s-0.1,0.1-0.1,0.2c0.2-0.1,0.2-0.2,0.3-0.3s0.1,0,0.1-0.1  s0.2-0.3,0.3-0.3c0.2-0.2,0.3-0.4,0.4-0.6s0.2-0.2,0.4-0.3s0.1-0.1,0.1-0.1s-0.1,0.2-0.1,0.2c0.2-0.2,0.4-0.4,0.5-0.7  c0.2-0.1,0.3-0.2,0.4-0.3c0.3-0.3,0.5-0.5,0.8-0.8c0.2-0.2,0.4-0.4,0.6-0.6c0-0.1,0.1-0.2,0.2-0.2c0,0-0.1-0.5-0.1-0.6s0,0,0-0.1  c-0.2-0.2-0.4-0.3-0.6-0.5c-0.1,0-0.1,0-0.1-0.1s-0.3,0-0.4,0.1s-0.1,0.1-0.2,0.1c-0.4,0.2-0.6,0.6-0.9,0.8  c-0.9,0.8-1.7,1.4-2.7,2.2c-0.6,0.6-1.2,1.1-1.9,1.7c-0.3,0.3-0.7,0.5-1,0.8s-0.3,0.2-0.5,0.4S121.5,97.7,121.4,97.8L121.4,97.8z   M181,90.2C181,90.2,181,90.2,181,90.2c-0.2,0.1-0.3,0.2-0.4,0.4l0,0c-0.1,0.1-0.2,0.1-0.3,0.2c0,0.1-0.2,0.2-0.2,0.2  s0.1-0.2,0.3-0.2c0.1-0.1,0.2-0.1,0.2-0.1v-0.1C180.7,90.4,180.9,90.4,181,90.2L181,90.2z M181,89.7c0.1-0.1,0.1-0.5,0-0.7  c0-0.1,0-0.2,0-0.3c0-0.1,0-0.2,0-0.4c-0.1,0-0.1,0-0.1,0c-0.1,0.2-0.1,0.4-0.2,0.6c-0.1,0.3-0.3,0.6-0.6,0.8l0,0  c-0.5,0.5-1,0.9-1.6,1.4c-0.1,0-0.2,0.2-0.2,0.2s-0.2,0-0.2,0.2c-0.2,0.1-0.3,0.2-0.5,0.3c-0.3,0.2-0.6,0.4-0.9,0.7  s-0.5,0.4-0.7,0.5c-0.2,0.2-0.5,0.4-0.7,0.6c0,0.1-0.1,0.1-0.2,0.2s-0.1,0.1-0.1,0.1s-0.1,0.1-0.2,0.2s-0.2,0.2-0.3,0.2  s-0.1,0-0.1,0c-0.1,0-0.2,0.1-0.2,0.2l-0.3,0.2c-0.2,0.1-0.4,0.4-0.6,0.5c0,0,0.1-0.1,0.1-0.1s0.1-0.1,0.1-0.3s0,0,0-0.1  c0-0.1,0-0.1,0.1-0.1c0,0,0,0,0,0c0.1-0.1,0.1-0.3,0.2-0.4c-0.1,0-0.1,0-0.1,0s0.1-0.1,0.1-0.1c0,0,0.1-0.1,0.1-0.1  c0.1,0,0.1-0.1,0.2-0.2c0.1,0,0.1-0.2,0.2-0.2s0.2,0.1,0.2,0.3c0.1,0,0.1-0.2,0.2-0.2c0.1-0.2,0.3-0.5,0.5-0.7  c0.1-0.1,0.2-0.2,0.3-0.4c0.1,0,0.1-0.2,0.2-0.2s0-0.1,0.1-0.1s0.1-0.1,0.1-0.2s0.3-0.1,0.2-0.4s-0.3-0.4-0.4-0.6s-0.7-0.7-0.9-0.8  c-0.1,0-0.2,0-0.3,0.1c0,0.3-0.3,0.5-0.4,0.8c-0.1,0.2-0.2,0.4-0.3,0.6c-0.3,0.5-0.5,1-0.8,1.4c-0.4,1-0.9,2-1.4,3  c-0.2,0.5-0.4,1-0.7,1.5c0,0,0,0.1,0,0.2s0.1,0.1,0.2,0.2c0.3,0,0.3,0.3,0.6,0.3l0.1,0.1c0.1,0,0.1,0,0.2,0c0-0.1,0.1-0.3,0.2-0.4  c0.1-0.1,0.1-0.2,0.2-0.3s0.2-0.4,0.4-0.5c0-0.1,0.1-0.3,0.2-0.3c0,0,0.1-0.1,0.1-0.1c0-0.1,0.1-0.2,0.2-0.3  c0.3-0.3,0.5-0.6,0.9-0.8v-0.1c0,0,0.3-0.1,0.4-0.2s0-0.1,0-0.1s0,0,0.1,0s0-0.1,0-0.1s0-0.1,0.1-0.1s0-0.1,0-0.1h0.1v0.1  c0,0,0-0.1,0-0.2c0,0,0,0,0.1,0c0.1-0.2,0.3-0.3,0.5-0.4c0-0.1,0.1-0.1,0.1-0.1s0.1-0.1,0.1,0c0-0.1,0.1-0.1,0.1-0.1  c0,0,0-0.1,0-0.1l0,0l0,0c0,0,0-0.1,0.1-0.1s0,0.1,0,0.1v-0.1h0.1c0.1,0,0.1-0.1,0.1-0.2c0.1,0,0.2,0,0.2-0.1c0-0.1,0.1-0.1,0.1-0.1  c0,0,0.1-0.1,0.1-0.1c0-0.1,0.1-0.1,0.1-0.1v-0.1h0.1c0,0,0.1-0.1,0.2-0.1c0.1-0.1,0.2-0.2,0.3-0.2c0.1,0,0.2-0.1,0.2-0.2  c0,0,0.2,0,0.2-0.2c-0.2,0-0.2,0.2-0.4,0.3c-0.1,0.1-0.2,0.1-0.4,0.2c0,0.1-0.1,0.1-0.2,0.1c0,0-0.1,0.1-0.1,0.1s0-0.1,0-0.2  s0,0,0,0s0.1-0.1,0.2-0.1s-0.1,0.1,0,0.1c0.1-0.1,0.2-0.2,0.3-0.2c0-0.2,0.2-0.1,0.2-0.2s0.1-0.1,0.2-0.1s0.1-0.1,0.2-0.2  c0.1,0,0.1-0.1,0.2-0.1c0.1,0,0.1-0.1,0.2-0.1c0.1,0,0.1-0.1,0.1-0.2c0.1,0,0.1-0.1,0.2-0.1c0.1,0,0.1-0.1,0.1-0.1l0.1-0.1  c0,0,0-0.1,0.1-0.1c0-0.1,0.1-0.1,0.2-0.1c0.1-0.1,0.3-0.2,0.4-0.2s0.3-0.2,0.4-0.3s0.1-0.2,0.2-0.2s0.3-0.2,0.4-0.4  c-0.3,0.2-0.5,0.3-0.7,0.6c-0.1,0.1-0.2,0.1-0.3,0.1c0.1-0.2,0.2-0.2,0.3-0.2s0-0.1,0.1-0.1l0.5-0.4c0.1-0.1,0.2-0.2,0.3-0.3  c0.1,0,0.2,0,0.2-0.2c-0.1,0.1-0.1,0.2-0.2,0.2c-0.2,0.2-0.5,0.4-0.8,0.5c-0.1,0.1-0.3,0.3-0.4,0.3c0,0,0.1,0,0.1-0.1s-0.1,0-0.1,0  s-0.2,0-0.2,0.1s0.1,0,0.1,0.1s-0.2,0.1-0.3,0.1s0.1-0.1,0.1-0.2s0,0,0-0.1l0.2-0.1c0.1-0.1,0.2-0.1,0.4-0.3c0,0,0,0,0.1,0  s0.2-0.1,0.3-0.3c0,0,0,0,0.1,0c0.1-0.1,0.3-0.2,0.4-0.3C180.7,90.2,181,90.2,181,89.7L181,89.7L181,89.7z M180,90.1  c-0.3,0.2-0.5,0.5-0.8,0.7c0-0.1,0-0.1,0.1-0.1s0.3-0.3,0.5-0.4C179.9,90.2,179.9,90.1,180,90.1c0-0.1,0.1-0.2,0.2-0.3l0,0v0.1  C180.2,89.9,180.1,90,180,90.1L180,90.1z M180.2,89.9C180.2,89.9,180.2,89.8,180.2,89.9C180.4,89.8,180.3,89.9,180.2,89.9  c0.1,0,0.2-0.1,0.2-0.1s0,0.1,0,0.1s0,0,0.1,0s-0.1,0-0.1,0.1c-0.1,0.1-0.1,0.2-0.1,0.2c0,0-0.1,0-0.2,0.1l-0.1,0.1  c-0.1,0.2-0.2,0.2-0.3,0.3l-0.1,0.1c0,0-0.1,0-0.1,0.1s-0.2,0-0.2,0.2s-0.2,0-0.3,0.2c-0.3,0.1-0.5,0.3-0.8,0.5h-0.1  c-0.1,0.1-0.2,0.2-0.3,0.3v-0.1c0,0-0.1,0-0.2,0c0,0.1-0.1,0.1-0.2,0.2c0,0,0,0.1,0,0.1c-0.3,0-0.5,0.3-0.7,0.4l0,0c0,0-0.1,0-0.2,0  c0.5-0.4,1-0.7,1.6-1c0-0.1,0.2-0.2,0.3-0.2c0,0-0.1,0.1-0.2,0.1c0,0-0.1,0.1-0.1,0.1c-0.1,0-0.1,0-0.1,0s0,0.1,0,0.2  c0.1,0,0.2-0.1,0.2-0.2l0,0c0,0,0-0.1,0-0.1c0.1,0,0.1-0.1,0.2-0.1h0.1c0,0,0-0.1,0.1-0.2s0,0-0.1,0s0.1-0.1,0.1-0.1  c0.1-0.1,0.2-0.1,0.2-0.2s0.2,0,0.2,0s0.1,0,0.1-0.2c0.1-0.1,0.3-0.2,0.4-0.3c0,0,0,0,0-0.1s0,0,0.1,0s0.1,0,0.1-0.1s0,0.1-0.1,0  C180,90.1,180.2,90,180.2,89.9L180.2,89.9z M178.7,91.8c0.1-0.1,0.2-0.1,0.3-0.2l0,0c0,0,0,0.1-0.1,0.1c-0.1,0-0.2,0-0.2,0.2h0.1  c-0.1,0-0.2,0.1-0.2,0.2c-0.2,0.1-0.3,0.3-0.5,0.3c0,0-0.1,0.1-0.2,0.1s0,0,0-0.1s0,0,0.1-0.1s0,0,0,0s0.1-0.1,0.2-0.1s0-0.1,0-0.1  c0.2-0.1,0.3-0.3,0.5-0.3C178.7,91.9,178.7,91.9,178.7,91.8C178.8,91.8,178.8,91.9,178.7,91.8L178.7,91.8z M178.7,92.1  c0.2-0.1,0.4-0.2,0.6-0.3c0,0-0.1,0-0.1,0l-0.1,0.1c-0.1,0.1-0.2,0.2-0.3,0.3S178.7,92.1,178.7,92.1  C178.6,92.1,178.8,92.1,178.7,92.1L178.7,92.1z M177.8,92C177.8,92,177.8,92,177.8,92c-0.1,0.1-0.1,0.1-0.2,0.1  c-0.1,0.1-0.1,0.2-0.2,0.2s0,0,0-0.1s0.1-0.1,0.1,0C177.5,92.1,177.6,92.1,177.8,92C177.8,92,177.7,92.1,177.8,92L177.8,92z   M177.8,92.5L177.8,92.5c0,0-0.1,0.1-0.1,0.2c-0.1,0-0.2,0.2-0.4,0.2C177.4,92.6,177.6,92.6,177.8,92.5L177.8,92.5z M176.3,93.3  c0.1-0.2,0.3-0.3,0.5-0.4c-0.1,0.1-0.2,0.1-0.3,0.3S176.4,93.3,176.3,93.3z M176,94.2c0.2-0.2,0.4-0.3,0.7-0.4c0,0-0.1,0-0.1,0.1  c-0.2,0.1-0.2,0.2-0.4,0.3S176.1,94.2,176,94.2L176,94.2z M178.4,92.6c-0.1,0.1-0.2,0.2-0.3,0.3l0,0c0,0.1-0.1,0.1-0.2,0.1  C178.1,92.9,178.2,92.7,178.4,92.6L178.4,92.6z M184.4,91c0,0.1,0,0.2,0,0.2c0.1,0.1,0.3,0.2,0.3,0.4c0,0.2,0,0.4,0.1,0.6  c-0.1,0.1,0,0.1,0,0.2c0,0.1,0.1,0.2,0.1,0.3c0,0,0.1,0,0.1,0s-0.1,0-0.1,0s-0.1,0.1-0.1,0.1s-0.2,0.1-0.3,0s-0.3,0.1-0.4,0.1  c-0.4,0.1-0.7,0.2-1.1,0.3l-0.1,0.1c-0.3,0.1-0.6,0.2-0.9,0.4c0,0-0.1,0-0.2,0.1c-0.1,0-0.1,0-0.1,0.1l-0.2,0.1l-0.8,0.4l-0.2,0.2  c-0.6,0.4-1.2,0.8-1.7,1.3c-0.1,0.1-0.2,0.1-0.3,0.2c-0.1,0.1-0.2,0.1-0.3,0.3c0.1,0,0.2,0,0.3,0c0.1,0,0.1,0,0.2,0  c0.1,0,0.1,0,0.2-0.1c0.8-0.2,1.6-0.4,2.4-0.7l0.3-0.1c0.2,0,0.3-0.1,0.5-0.2c0.1,0,0.1,0,0.2,0c0.4-0.2,0.7-0.3,1.1-0.5  c0.1,0,0.2-0.1,0.2-0.1c0.3-0.2,0.7-0.4,1.1-0.6c-0.4,0.2-0.8,0.4-1.1,0.7c-0.1,0.1-0.2,0.1-0.2,0.2l-1,0.6c-0.1,0-0.1,0.1-0.2,0.1  c-0.2,0.1-0.3,0.2-0.5,0.3s-0.2,0.1-0.3,0.1c-0.4,0.4-1,0.4-1.3,0.8s-0.6,0.1-0.9,0.4c-0.1,0-0.2,0-0.3,0.1c-0.1,0-0.2,0-0.3,0.1  c-0.2,0.1-0.5,0.1-0.7,0.1c-0.2,0-0.4-0.1-0.6-0.3c0.1,0.4-0.5-0.4,0.2-2c0.3-0.5,0.6-1,0.9-1.4c0.2,0,0.2-0.3,0.3-0.2  c0,0,0,0,0-0.1c0,0,0,0.1,0,0.1c0.1,0,0.1-0.1,0.1-0.1s-0.1,0.1-0.1,0.2s-0.1,0.1-0.1,0.1s-0.1,0.1-0.1,0.1s0.1,0,0.1,0  c0,0.1,0,0.2-0.1,0.2c-0.2,0.1-0.3,0.3-0.4,0.6c0.1-0.1,0.2-0.3,0.3-0.3c0.4-0.6,0.9-1.1,1.4-1.6c0-0.1,0.1-0.1,0.1-0.1  s-0.1,0.1-0.2,0.1s-0.2,0.1-0.2,0.2c-0.1,0.1-0.2,0.2-0.4,0.3c0-0.1,0.1-0.1,0.1-0.2s0.1-0.1,0.1-0.1l0.2-0.2c0,0,0-0.1,0-0.1  s0.2-0.1,0.3-0.3c0.3-0.3,0.6-0.6,1-0.8c0.7-0.6,1.5-0.9,2.3-1c0.2,0,0.4,0,0.6,0c0.1,0,0.1,0,0.2,0.1c0.1,0,0.1,0.1,0.2,0.1  s0.2,0.1,0.4,0.2L184.4,91z M182.8,92.1c0.1,0,0.3,0,0.4,0c-0.2,0.1-0.4,0.1-0.6,0.2c-0.6,0.2-1.2,0.5-1.8,0.8  c0.4-0.3,0.8-0.6,1.2-0.8L182.8,92.1L182.8,92.1z M178.4,94.3C178.3,94.3,178.3,94.2,178.4,94.3L178.4,94.3z M179.7,94.3  C179.7,94.3,179.8,94.2,179.7,94.3C179.7,94.3,179.7,94.3,179.7,94.3z M177.8,95c0,0,0.1,0,0.1,0C177.9,95,177.8,95,177.8,95z   M134.1,95.3L134.1,95.3L134.1,95.3z M136.1,93.9L136.1,93.9L136.1,93.9z M138.6,91.9L138.6,91.9z M138.6,91.7L138.6,91.7  c0-0.1-0.1-0.1,0-0.1S138.6,91.6,138.6,91.7c0,0-0.1,0-0.2-0.1c0.1,0,0.1,0,0.1,0s0,0,0,0s0,0,0-0.1l0,0c-0.1-0.2,0.1,0-0.1,0.1  s-0.2-0.2-0.3-0.1c0-0.1-0.1-0.1-0.1-0.1s-0.1,0-0.1,0s0.1-0.1,0.1-0.1s0-0.1-0.1-0.1h-0.1c-0.3,0-0.5,0-0.8,0.1  c-0.2,0.1-0.4,0.2-0.7,0.3c-0.9,0.4-1.7,0.9-2.5,1.4c-0.3,0.1-0.6,0.3-0.9,0.5c-0.1,0,0-0.1-0.1-0.1c-0.1-0.2-0.3-0.4-0.4-0.6  s-0.7-0.7-0.9-0.9c-0.1,0-0.1,0-0.2,0.1c-0.1,0.1-0.1,0.1-0.1,0.1s-0.1,0.2-0.1,0.2c-0.1,0.2-0.2,0.4-0.4,0.6  c-0.1,0.2-0.3,0.4-0.4,0.6c-0.1,0.2-0.2,0.4-0.4,0.6c-0.1,0.2-0.3,0.4-0.3,0.6c-0.1,0.1-0.2,0.2-0.2,0.3c-0.4,0.8-0.9,1.6-1.3,2.4  c-0.1,0.1-0.1,0.3-0.2,0.3c0,0.1-0.1,0.3-0.2,0.4c-0.1,0.2-0.1,0.3-0.3,0.4c-0.2,0.3-0.3,0.5-0.4,0.8c-0.1,0.1-0.2,0.2-0.1,0.3  s0.1,0,0.1,0s-0.1,0.3,0,0.3s0,0,0,0.1s0.1,0.1,0.2,0.1s0.1,0.1,0.2,0.1s0.2,0,0.2,0.1s0.2,0,0.2,0.1c0,0,0.1,0,0.1,0  c0.9-1.7,2.1-3.2,3.5-4.4c0,0,0.1,0,0.1-0.1s0.2,0,0.2-0.1s0.2-0.2,0.2-0.2s0.3-0.2,0.4-0.4s0.4-0.2,0.6-0.4l0,0  c0.1-0.1,0.2-0.2,0.4-0.3c0.9-0.7,1.8-1.3,2.9-1.8c-0.2,0.2-0.4,0.3-0.5,0.5c-0.1,0.2-0.3,0.4-0.5,0.5c0,0,0,0-0.1,0.1l-0.2,0.1h0.1  c-0.2,0.2-0.5,0.6-0.7,0.8l0,0l0,0v0.1c0,0-0.1,0.1-0.1,0.1s0,0,0,0s0,0.1-0.1,0.1s0,0,0,0.1s0,0-0.1,0c-0.3,0.5-0.7,0.9-0.9,1.4  c0,0.1-0.1,0.1,0,0.1c0.2-0.2,0.2-0.4,0.4-0.6s0.2-0.1,0.3-0.2s0.1-0.2,0.3-0.3c0,0,0.1-0.1,0.1-0.1c0,0,0.1-0.1,0.1-0.1  s0.3-0.3,0.4-0.3l0.2-0.1c0.2-0.2,0.3-0.3,0.5-0.4l0,0l0.1-0.1c0.1,0,0.1,0,0.2,0c0-0.1,0.1-0.1,0.1-0.2c0-0.1,0.1-0.1,0.2-0.1  c0,0,0-0.1,0.1-0.1c0.1-0.1,0.3-0.2,0.4-0.3c-0.1,0.1-0.1,0.1-0.2,0.2c0.1,0,0.2-0.1,0.3-0.2l0,0c0.1,0,0.2,0,0.1-0.1s0,0-0.1,0  c0.1,0,0.1-0.1,0.2-0.1c0.1,0,0.1,0,0.1,0c0,0,0-0.1,0.1-0.1l0,0c0.1,0,0.1-0.1,0.2-0.1c0,0-0.1,0.1-0.1,0.1c0.2,0,0.2-0.2,0.4-0.3  c0-0.1,0.1-0.1,0.1-0.1c0.4-0.2,0.7-0.5,1.1-0.7c0,0,0,0,0-0.1s0-0.1,0.1-0.1s0,0,0,0c0,0,0-0.1,0-0.1c-0.1-0.1-0.1-0.1,0-0.2  L138.6,91.7z M133.8,93.8c0.1,0,0.2-0.1,0.2-0.2c-0.1,0.1-0.2,0.2-0.3,0.2l0,0c-0.2,0.1-0.2,0.3-0.4,0.3c0,0.1-0.2,0.1-0.1,0.2  C133.3,94.1,133.5,93.9,133.8,93.8C133.7,93.8,133.7,93.8,133.8,93.8L133.8,93.8z M137.3,91.4c0.1-0.1,0.2,0,0.4,0  c-0.3-0.1-0.5,0-0.8,0.1l0,0C137,91.5,137.1,91.5,137.3,91.4c-0.1,0.1-0.1,0.1-0.2,0.1c0.1,0,0.3,0,0.4,0  C137.4,91.4,137.3,91.5,137.3,91.4L137.3,91.4z M133.9,95C133.9,95,133.9,95,133.9,95L133.9,95z M93.4,94.3c0.2-0.1,0.4-0.1,0.6,0  c-0.3,0.1-0.6,0.2-0.8,0.3c-0.9,0.2-1.7,0.6-2.5,0.9c0.5-0.4,1.1-0.7,1.8-0.9L93.4,94.3L93.4,94.3z M87.1,96.9  C87.1,96.9,87.1,96.9,87.1,96.9C87.3,96.8,87.1,96.9,87.1,96.9z M89,96.9c0.1,0,0.1-0.1,0.1,0C89.1,96.9,89,96.9,89,96.9z   M86.3,97.8c0,0,0.1,0,0.2-0.1C86.4,97.7,86.4,97.8,86.3,97.8z M105.1,106.6c0.1,0.1,0.2,0,0.1,0.1c-0.3,0.3-0.5,0.6-0.7,1  c0.4-0.4,0.7-0.8,0.9-1.3C105.3,106.4,105.1,106.4,105.1,106.6C105.1,106.6,105.1,106.6,105.1,106.6L105.1,106.6z M87.3,113.2  c-0.3-0.5-0.5-1-0.7-1.5C86.6,112.2,86.9,112.8,87.3,113.2z M126.8,104.2c0,0-0.1,0-0.2,0s0.2,0,0.2,0.2s0,0.3,0,0.5  c-0.3,0.2-0.7-0.1-0.9,0.1c0,0.2,0.2,0,0.2,0.2c-0.6,0.2-1.1,0.2-1.7,0.2c0-0.2,0.2,0,0.2-0.2c-0.3,0-1-0.1-1.2-0.1  c-1,0-1.9,0-3.1-0.1c0.8-0.2,1.6-0.2,2.4,0c0.1,0,0.1-0.1,0.3-0.1c0,0.1,0,0,0,0.1c0.2-0.2,0.8,0,1-0.2c-0.6-0.1-1.1-0.1-1.7,0  c0,0,0.1,0,0.1,0c-0.1-0.1-0.3-0.1-0.5,0c-1.6-0.2-2.8,0.2-4.3,0c0.2-0.1,0.7,0,0.7-0.2c0.6-0.2,1.3,0,1.7-0.2  c0.6,0,1.7,0.3,2.1-0.1c0.4,0,0.5-0.1,0.9-0.1c-0.2-0.2-0.5,0-0.7-0.1c0-0.2,0.4-0.1,0.6-0.1c-0.3-0.2-0.9,0-1.1-0.1  c0.5-0.1,1.1-0.1,1.6-0.2c-0.3-0.1-0.5-0.1-0.8-0.1c0.3-0.1,0.7-0.1,1-0.3c-4.3-1-8.7-1.5-13.2-1.3c-0.1,0,0,0.1-0.1,0.1  c-0.9,0-1.8,0-2.6,0.1c0,0.4-0.4,0.6-0.6,0.8c0.1,0,0.1-0.1,0.2,0c-0.1,0.1-0.1,0.1-0.2,0.2c0,0.2,0.1,0,0.2,0.1  c-0.2,0.7-0.8,1.1-1.1,1.8c0,0,0.1,0,0.2,0c-0.3,0.2-0.5,0.3-0.7,0.6c0.1,0.1,0.4-0.1,0.4,0.1c-0.3,0-0.4,0.3-0.6,0.3  c-0.1-0.2,0.1-0.2,0.2-0.3s-0.2,0.1-0.2,0.1v0c-0.2,0.3-0.4,0.7-0.6,1c-0.1,0.2-0.5,0.8-1,1.3c-0.4,0.7-0.9,1.4-1.4,2  c0.1,0.6-0.6,0.8-0.8,1.3c0.1,0,0.3-0.1,0.3-0.3c0.1,0-0.1,0.2-0.1,0.3s0.2-0.1,0.3-0.2c-0.3,0.3-0.5,0.6-0.8,0.7  c0,0,0.2-0.1,0.1-0.3c-0.2,0.3-0.4,0.6-0.6,0.8c0.2,0,0.2-0.2,0.2-0.2c-0.5,0.6-1,1.2-1.6,1.7c-1.1,0.9-2.4,1.5-3.7,1.9  c-2.9,0.7-5.9-0.3-7.9-2.5c-0.3-0.5-0.5-0.9-0.7-1.4c0-0.1-0.1,0-0.1-0.1c-0.1-0.3-0.1-0.6-0.2-1c0.1-0.4,0.1-0.8,0.2-1.2  c0.6-0.3,0.5-1.1,1-1.4c0.1,0-0.1,0-0.1,0.1c0.2-0.1,0.5-0.4,0.7-0.6c0,0-0.1,0.1-0.2,0c1.3-1.5,2.9-2.6,4.7-3.4  c0.9-0.3,2.3-0.9,3.3-1.2c1.7-0.6,3.4-1.1,5.1-1.3c0.3-0.1,0.7-0.1,1,0c0.7,0,1.3-0.2,2-0.3c0.6,0,1.2-0.1,1.8-0.2h0.1  c0-0.2,0.1-0.3,0.2-0.5c0.4-0.7,0.8-1.4,1.2-2c0-0.2,0.1-0.3,0.2-0.5c0.2-0.6,0.6-0.9,0.8-1.5c0.2-0.4,0.5-0.7,0.8-1  c0.2-0.7,0.8-1.2,1-1.9c0.4-0.4,0.7-0.9,1-1.4l0,0c-0.1,0.1-0.2,0.3-0.3,0.4c0,0,0,0,0-0.1s0,0.1-0.2,0.1s0.1-0.1,0.1-0.2  c-0.2,0-0.2,0.4-0.5,0.5c-0.6,0.9-1.4,1.8-2.1,2.6c0,0.2-0.2,0.2-0.2,0.4c-0.3,0.1-0.5,0.5-0.7,0.7s-0.3,0.1-0.3,0.4  c0,0-0.1,0-0.2,0c-0.3,0.2-0.7,0.5-1,0.8c-0.5,0.4-0.8,0.7-1.4,1.1c-0.3,0.3-0.8,0.5-1.3,0.4c0-0.1-0.1-0.1-0.1-0.1  c-0.1,0-0.1,0-0.2,0c-0.2-0.1-0.3-0.3-0.5-0.4c0-0.1-0.1-0.3-0.2-0.3c-0.2-0.8,0.3-1.4,0.7-2c0.3-0.4,0.5-0.8,0.8-1.3l0,0  c0,0,0.1-0.1,0.1-0.1s-0.1-0.2,0-0.2s0.1,0,0.1-0.1s0,0.1,0.2,0.1s0.1-0.1,0.1-0.1c0.3-0.3,0.5-0.6,0.6-0.9c0.7-0.9,1.3-1.9,2-2.8  c1-1.4,2-2.9,2.8-4.5c0-0.1,0-0.1-0.1-0.2c0-1,0.7-0.9,1.2-0.3c0.2,0.2,0.3,0.5,0.5,0.8c0.1,0.3,0.1,0.5,0.1,0.8c0,0.2,0,0.4,0,0.6  s-0.1,0.2-0.2,0.2s0,0.2,0,0.2c-0.2,0.4-0.4,0.8-0.7,1.2c-0.2,0-0.2,0.2-0.2,0.3s-0.3,0.2-0.4,0.4s0,0.1,0,0.2s-0.5,0.4-0.5,0.8  c-0.2,0.2-0.4,0.5-0.5,0.8c-0.4,0.4-0.7,0.8-1,1.2c-0.1,0.1-0.1,0.3-0.3,0.4c0,0-0.1,0.1-0.1,0.1c-0.3,0.3-0.6,0.6-0.8,1  c0.3-0.2,1.4-1.1,1.7-1.3c0.9-0.8,1.9-1.7,2.8-2.6c0.6-0.6,1.3-1.1,1.8-1.7c0.1-0.2,0.9-1.1,1.1-1.3c1.5-1.7,2.4-3.1,4-4.8  c0.4-0.4,0.8-0.8,1.2-1.1c0.2-0.2,0.5-0.6,0.8-0.4c0,0,0.2-0.1,0.2-0.2s0,0.1,0,0s0.2-0.2,0.4-0.2c0,0,0.1-0.1,0.2-0.1  c0.1,0,0,0,0.1,0l0.3-0.1c0.3,0,0.6-0.1,0.9-0.3c0.2-0.1,0.2-0.1,0.1,0.2c-0.4,0.6-2.1,2.8-2.3,3.1c-0.3,0.4-1.7,2-2,2.4  s-0.4,0.7-0.7,1c-0.2,0.2-0.3,0.4-0.4,0.6c-0.4,0.4-0.6,0.9-1,1.2c0,0.1,0,0.1,0,0.1c-0.8,1.1-1.8,2.1-2.6,3.3  c-0.2,0-0.2,0.2-0.3,0.2c0,0.1,0,0.2,0,0.2s0,0,0.1,0c-0.4,0.5-0.9,0.8-1.3,1.4c0.1,0.1,0,0,0.1,0s-0.1,0.1-0.2,0  c0,0.1-0.2,0.1-0.2,0.2s0.2,0,0.3,0c-0.1,0.1-0.2,0.2-0.2,0.3s0.2-0.2,0.3-0.1c-0.4,0.2-0.4,0.8-0.8,1.1c0,0.1,0-0.1,0.1,0  c-0.4,0.7-0.9,1.3-1.4,1.8c0.1-0.2,0.2-0.5,0.4-0.7c0.1-0.3,0.3-0.4,0.4-0.6c-0.2,0.2-0.4,0.3-0.5,0.6c0,0.1-0.1,0.2-0.2,0.3  s0,0.1,0,0.1s-0.3,0.3-0.3,0.5c0,0,0,0.1,0,0.1s-0.1,0.1-0.2,0.2c-0.1,0.2-0.2,0.4-0.3,0.6c-0.1,0.1-0.3,0.3-0.3,0.5  c-0.1,0.1-0.3,0.3-0.4,0.5c0,0.1,0,0.2-0.1,0.3s-0.2,0.1-0.2,0.2c0.2,0,0.4,0,0.3,0.1c6.4,0,12.3,0.3,17.2,2c0.1,0,0-0.1,0.1-0.1  C126.2,103.7,126.7,103.7,126.8,104.2L126.8,104.2z M90.9,106.4c-0.5,0.3-0.9,0.6-1.3,1c0.1,0,0.3-0.2,0.4-0.2  C90.3,107.1,90.6,106.8,90.9,106.4L90.9,106.4z M88.7,108.8c-0.3,0.3-0.8,0.7-0.9,1.2c0.2-0.5,1-0.8,0.9-1.3c0.1,0,0.1,0,0.1-0.1  s-0.1-0.1-0.1-0.3c-0.2,0.1-0.3,0.3-0.4,0.5C88.5,108.8,88.7,108.8,88.7,108.8L88.7,108.8z M87.6,111.5c0.1,1.3,0.6,2.5,1.7,2.8  c-0.1-0.2-0.4-0.2-0.4-0.4c0.1,0,0.3,0.1,0.3,0c-0.1-0.2-0.6,0-0.4-0.4c-0.1,0-0.2-0.2-0.3-0.2s0.2,0.2,0.1,0.3s-0.2-0.2-0.2,0  c-0.2-0.1-0.3-0.4-0.3-0.6c0.1,0.1,0.1,0.2,0.2,0.2c0-0.2-0.2-0.7-0.3-1c0,0.1,0,0.2,0,0.3c-0.4-0.3-0.1-0.9-0.1-1.2c0,0,0,0-0.1,0  s0-0.2,0.1-0.2c0-0.5,0.3-0.9,0.3-1.5c-0.4,0.5-0.2,1.2-0.5,1.8C87.8,111.4,87.7,111.4,87.6,111.5L87.6,111.5z M98.3,114.5  c0.4-0.2,0.7-0.4,1-0.8c-0.1,0-0.1,0-0.1,0c-0.3,0-0.4,0.2-0.6,0.4c0,0.1,0-0.1,0,0s-0.1,0.1-0.1,0.1  C98.4,114.4,98.3,114.4,98.3,114.5L98.3,114.5z M101.8,110.9c0,0-0.1,0-0.2,0c0.1,0,0.2-0.1,0.2-0.1c-0.3,0-0.4,0.3-0.7,0.5  c0,0,0.1,0,0.1,0.1c-0.4,0.2-0.7,0.6-0.8,1c0.1,0,0.1-0.1,0.1,0c-0.2,0.1-0.4,0.3-0.4,0.6c0.2-0.3,0.4-0.4,0.5-0.6c0,0-0.1,0-0.1,0  c0.2-0.2,0.5-0.1,0.5-0.4c0,0-0.1,0.1-0.1,0c0.2-0.3,0.6-0.5,0.8-0.9L101.8,110.9z M105.5,103c-0.4,0.6-1,1.7-1.7,2.8  c-0.1,0.1-0.2,0.2-0.3,0.3c0,0.3-0.3,0.4-0.3,0.5l0,0c0,0.1-0.1,0.2-0.2,0.3v0.1c0-0.2,0.1-0.2,0.1-0.3c-0.9,1.2-1.7,2.6-2.5,3.9  c-0.6,0.5-1.2,1.2-1.7,1.9c-1.4,1.2-2.8,2.4-5,2.8c-1.5,0.3-3-0.1-4.1-1c0.2,0,0.4,0.2,0.7,0.2c-0.6-0.4-1.2-0.9-1.7-1.5  c-0.1,0-0.1,0.1-0.1,0.1c0-0.3-0.2-0.8-0.3-1.2c0-0.1-0.1,0-0.3,0c0-0.3,0.1-0.4,0.1-0.7c0-0.1-0.1,0-0.2,0c0.1-0.8,0.5-1.5,1.1-2.1  c0.1,0,0.1,0,0.2,0c1.4-1.5,3.1-2.6,4.9-3.3c0.7-0.4,1.4-0.7,2.2-1c0.5-0.1,0.9-0.4,1.4-0.6c0.8-0.2,1.5-0.4,2.2-0.6  c1.8-0.4,3.7-0.8,5.5-1C105.6,102.8,105.5,102.9,105.5,103L105.5,103z M106.1,105.1l0.4-0.6C106.3,104.7,106.2,104.9,106.1,105.1z   M108.4,100.1c0.1,0,0.1-0.1,0.1-0.1C108.4,100,108.4,100,108.4,100.1z M108.9,99.1c0.1,0,0.1,0,0.1-0.1s-0.1,0.1-0.1,0  C108.8,99.1,108.9,99,108.9,99.1L108.9,99.1z M110.1,97.1c0-0.1,0.1,0,0.1-0.1S110,97.1,110.1,97.1z M110.9,97.3  c0.1,0.1,0-0.1,0.1-0.2C110.9,97.1,110.9,97.2,110.9,97.3z M111.2,96.8c0-0.1,0.1-0.2,0-0.2c-0.1,0.1-0.2,0.2-0.2,0.4  C111.1,97,111.1,96.9,111.2,96.8L111.2,96.8z M111.4,96.3c0.2-0.1,0.2-0.4,0.4-0.6C111.7,95.9,111.5,96.1,111.4,96.3z M107.1,103.5  c0,0,0.1-0.1,0-0.2V103.5z M107.7,101.4c0,0,0-0.1,0-0.2c0,0.1-0.1,0.1-0.1,0.2H107.7z M107.7,101C107.6,101,107.6,101.1,107.7,101  c0.1,0.1,0,0.2,0,0.1L107.7,101z M107.7,101c0.1-0.1,0.4-0.2,0.3-0.4C107.9,100.8,107.7,100.9,107.7,101z M107.8,100.1  c0.4-0.4,0.7-0.9,1-1.5c0-0.1,0-0.1,0-0.1c0.1-0.4,0.6-0.6,0.7-1.1c0.3-0.2,0.3-0.5,0.6-0.7c0.2-0.5,0.5-1,0.8-1.4  c-0.1,0-0.2,0.1-0.2,0.2c0-0.1,0.1-0.2,0.3-0.2c0.1-0.3,0.5-0.6,0.5-0.9c-0.1,0.1-0.2,0.3-0.4,0.4c-0.2,0.2-0.3,0.4-0.4,0.7  c-0.1,0.1-0.3,0.3-0.4,0.4c0,0.1-0.1,0.1-0.1,0.2s-0.1,0.1-0.1,0.2c-0.2,0.1-0.2,0.6-0.4,0.6c-0.1,0.3-0.3,0.6-0.5,0.9  c0,0-0.1,0.1-0.2,0.1c-0.1,0.4-0.5,0.6-0.7,1l0,0c-0.1,0.2-0.3,0.6-0.3,0.9c-0.2,0-0.3,0.2-0.3,0.3c0,0,0,0,0,0  c-0.3,0.3-0.5,0.8-0.7,1.2c0,0,0.1,0,0.1-0.1c0,0,0,0.1,0,0.1h0.2C107.5,101,107.7,100.5,107.8,100.1L107.8,100.1z M122.6,105.4  c-0.2,0-0.4-0.2-0.6-0.2c0,0,0.1,0,0.1,0.1s-0.5,0-0.7,0.2c0.6,0,1.3,0,1.9-0.1C123,105.4,122.7,105.2,122.6,105.4L122.6,105.4z   M112.9,97.3C112.9,97.3,112.9,97.3,112.9,97.3c0.2-0.3,0.6-0.6,0.9-0.9c0.1-0.4,0.1-0.8,0.1-1.2c0-0.1,0.1-0.1,0.1-0.2  c1-1.1,2.3-1.9,3.6-2.4c0.6-0.2,1.2-0.4,1.8-0.5c0.5-0.1,1.1,0.1,1.3,0.6c0.2,0.2,0.5,0.8,0.3,1.1c0,0.1-0.1,0.2-0.1,0.3  s0,0.1-0.1,0.1s0,0,0,0s-0.1,0.2-0.2,0.3c-0.1,0.2-0.2,0.3-0.3,0.4c-0.1,0.2-0.2,0.3-0.4,0.5c-0.4,0.3-0.7,0.6-1.1,0.9  c-0.3,0.3-0.6,0.5-0.9,0.8l0,0c-0.1,0-0.2,0.1-0.3,0.2c-0.1,0-0.2,0-0.2,0s0.1,0,0.1,0s0,0,0,0.1c0,0-0.1,0-0.1,0  c0,0.1-0.2,0.1-0.3,0.2s0.1,0,0.1,0c-0.1,0.2-0.3,0.2-0.4,0.4h-0.2c0,0,0.1,0,0.1,0s-0.1,0.1-0.1,0.1s0,0,0-0.1  c-0.2,0.1-0.4,0.2-0.6,0.4l0,0c-0.1,0-0.1,0.1-0.2,0.2c-0.2,0.1-0.3,0.2-0.5,0.3c0.1,0,0.1,0,0.1-0.1c0.4-0.1,0.5-0.4,0.9-0.4  c0,0.1-0.2,0.1-0.2,0.2s-0.1,0.1-0.2,0.1c-0.1,0.1-0.2,0.2-0.4,0.2c-0.1,0.1-0.2,0.1-0.3,0.2h-0.1c-0.1,0.1-0.2,0.1-0.3,0.2  c-0.1,0.1-0.1,0.1-0.2,0.2c-0.2,0.2-0.6,0.2-0.8,0.4c-0.1,0-0.2,0.1-0.4,0.1s-0.4,0.1-0.5,0.1s-0.2,0-0.3-0.1s0,0,0,0  s-0.1-0.1-0.1-0.1c-0.1-0.1-0.2-0.2-0.3-0.3c-0.1-0.1-0.3-0.2-0.3-0.4c-0.1-0.1-0.2-0.1-0.2-0.2c0.1,0,0.1-0.1,0.2-0.2  c-0.1-0.1-0.2-0.1-0.3-0.1c0.2-0.4,0.5-0.7,0.8-0.9c0,0,0,0-0.1,0.1c0.2-0.1,0.4-0.3,0.5-0.4L112.9,97.3z M114.5,97.7L114.5,97.7  c-0.1,0.1-0.1,0.1-0.1,0.1c-0.2,0.1-0.3,0.4-0.6,0.4c0-0.1-0.1-0.1-0.1-0.1c0.2-0.1,0.2-0.3,0.4-0.4c0,0-0.1,0-0.1,0s0.2,0,0.1-0.1  c0.2-0.1,0.3-0.3,0.5-0.4s0.4-0.4,0.6-0.7c0,0,0.1,0,0.2-0.1c0.1,0,0.2,0,0.3,0c0.1,0,0.1-0.1,0.2-0.1c0,0,0,0,0-0.1  c0.1-0.3,0.4-0.4,0.5-0.6s0.4-0.3,0.5-0.5c0.1-0.1,0.3-0.2,0.3-0.3c0,0,0.1,0,0.1-0.1c0.2,0,0.2-0.1,0.3-0.2s0.2-0.1,0.2-0.2h0.1  l0,0c0.1,0,0.2-0.1,0.2-0.2s0.4-0.2,0.6-0.3c0,0,0,0,0-0.1c0.3-0.2,0.7-0.3,1.1-0.4c-0.3,0.5-0.6,0.9-1,1.2  c-0.4,0.4-0.8,0.8-1.2,1.1c-0.6,0.5-1.2,1-2,1.5c-0.2,0.2-0.5,0.3-0.7,0.4c0,0,0,0.1,0,0.1C114.7,97.8,114.6,97.8,114.5,97.7  L114.5,97.7z M112.9,97.4c-0.2,0.2-0.4,0.3-0.5,0.5s-0.1,0.1-0.1,0.1s-0.1,0.1-0.2,0.2s-0.2,0.2-0.2,0.4c0.1,0,0-0.3,0.2-0.3  s0,0.1,0,0.1c0.2-0.2,0.3-0.3,0.5-0.5s0,0,0-0.1C112.7,97.7,112.8,97.6,112.9,97.4L112.9,97.4L112.9,97.4z M64.5,92.2L64.5,92.2  c0,0.3-0.2,0.5-0.5,0.7c-0.1,0.3-0.3,0.4-0.5,0.7c-0.1,0.1,0,0.2-0.1,0.2s-0.3,0.3-0.5,0.5s-0.1,0.3-0.3,0.5s-0.4,0.4-0.5,0.7  s-0.3,0.6-0.6,0.9c-0.1,0.1-0.3,0.2-0.4,0.4c-0.1,0.3-0.3,0.5-0.4,0.8c-0.4,0.5-0.8,1.1-1.2,1.7c0,0-0.1,0.1-0.2,0.1  c-0.1,0.4-0.4,0.8-0.7,1.1c0,0.2-0.1,0.5-0.2,0.7c-0.1,0.2-0.3,0.5-0.5,0.6c0,0.1,0,0.1,0,0.2c-0.2,0.1-0.1,0.6-0.5,0.6  c0-0.4,0.4-0.7,0.4-1.2c0.2-0.1,0.2-0.4,0.5-0.4c0-0.5,0.3-0.6,0.4-1c0.5-0.4,0.7-1.1,1.2-1.6c0-0.1,0-0.1,0-0.2  c0.4-0.6,0.8-1.1,1.2-1.6c0-0.3,0.4-0.4,0.5-0.6s0.2-0.6,0.5-0.7c0-0.3,0.4-0.5,0.6-0.7c0.1-0.1,0.1-0.2,0.1-0.3s0.2-0.1,0.2-0.2  s0.1-0.2,0.1-0.2l0.1-0.1c0.1-0.1,0.1-0.3,0.2-0.4s0.1-0.1,0.2-0.1C64.1,92.8,64.3,92.4,64.5,92.2L64.5,92.2z M63.7,94.1  C63.7,94.1,63.7,94.1,63.7,94.1c-0.3,0.2-0.3,0.5-0.6,0.6C63.2,94.4,63.5,94.2,63.7,94.1L63.7,94.1z M69.7,98.8  C69.7,98.7,69.7,98.8,69.7,98.8c0.3-0.3,0.7-0.6,1.1-0.9C71,97.4,71,97,71,96.5c0-0.1,0.1-0.1,0.1-0.2c1.2-1.2,2.7-2.1,4.2-2.6  c0.6-0.3,1.3-0.4,2-0.5c0.6-0.1,1.2,0.1,1.5,0.6c0.3,0.2,0.6,0.8,0.3,1.2c0,0.1-0.1,0.2-0.1,0.3s0,0.1-0.1,0.1s0,0,0,0  s-0.1,0.2-0.2,0.3c-0.1,0.2-0.2,0.3-0.4,0.4c-0.1,0.2-0.3,0.4-0.4,0.6c-0.5,0.3-0.8,0.7-1.3,0.9c-0.3,0.3-0.7,0.5-1,0.8l0,0  c-0.1,0-0.2,0.1-0.3,0.2c-0.1,0-0.2,0-0.3,0.1c0.1,0,0.1,0,0.1-0.1s0,0,0,0.1s0,0-0.1,0c0,0.2-0.2,0.1-0.4,0.2c0,0,0.1,0,0.2,0  c-0.1,0.2-0.3,0.3-0.5,0.4h-0.2c0,0,0,0,0.1,0c0,0-0.1,0.1-0.1,0.1c-0.1,0,0,0,0-0.1c-0.3,0.1-0.5,0.3-0.8,0.4l0,0  c0,0-0.1,0.1-0.2,0.2c-0.2,0.1-0.4,0.2-0.6,0.3c0.1,0,0.1,0,0.1-0.1c0.5-0.1,0.6-0.4,1.1-0.5c-0.1,0.1-0.2,0.1-0.2,0.2  c-0.1,0-0.1,0-0.2,0.1c-0.1,0.1-0.3,0.2-0.4,0.2c-0.1,0.1-0.2,0.1-0.3,0.3h-0.1c-0.1,0.1-0.2,0.1-0.3,0.2c-0.1,0.1-0.2,0.1-0.3,0.2  c-0.2,0.2-0.7,0.2-1,0.4c-0.2,0-0.3,0.2-0.5,0.2s-0.4,0.1-0.6,0.1s-0.2,0-0.3-0.1s0,0-0.1,0s-0.1-0.1-0.2-0.1  c-0.1-0.1-0.3-0.2-0.4-0.3c-0.1-0.2-0.3-0.3-0.3-0.4c-0.1-0.1-0.2-0.1-0.3-0.3c0.1-0.1,0.1-0.1,0.2-0.2c-0.1-0.1-0.2-0.1-0.3-0.1  c0.2-0.4,0.5-0.7,0.9-1l0,0c0.2-0.1,0.4-0.3,0.6-0.4L69.7,98.8z M71.6,99.2L71.6,99.2c-0.1,0.1-0.1,0.1-0.2,0.1  c-0.2,0.1-0.3,0.5-0.7,0.4c0-0.1,0-0.1-0.2-0.1c0.2-0.1,0.2-0.3,0.4-0.4h-0.1c0,0,0.1,0,0.1-0.1c0.3-0.1,0.3-0.3,0.6-0.4  c0.2-0.3,0.5-0.5,0.7-0.8l0.2-0.1c0.1,0.1,0.2,0.1,0.4,0c0.1,0,0.1-0.1,0.2-0.1s0,0,0-0.1c0.1-0.3,0.5-0.4,0.6-0.7s0.4-0.3,0.6-0.5  c0.2-0.1,0.3-0.2,0.4-0.4c0.1,0,0.1,0,0.1,0c0.2,0,0.2-0.2,0.4-0.2s0.2-0.1,0.3-0.2s0.1,0,0.1,0l0,0c0.2,0,0.2-0.1,0.2-0.2  c0.2-0.1,0.5-0.2,0.7-0.4c0,0,0,0,0-0.1c0.4-0.2,0.8-0.4,1.2-0.5c-0.3,0.5-0.7,1-1.1,1.4c-0.4,0.4-0.9,0.8-1.4,1.2  c-0.7,0.5-1.5,1.1-2.3,1.6c-0.3,0.2-0.6,0.4-0.9,0.5v0.1c-0.1,0.1-0.3,0.2-0.4,0.1L71.6,99.2z M69.7,98.8L69.7,98.8  c-0.2,0.1-0.2,0.3-0.4,0.4s0,0,0,0.1c-0.2,0.1-0.3,0.3-0.6,0.5c0,0,0,0,0-0.1c-0.2,0-0.1,0.2-0.2,0.3c0-0.2,0.1-0.3,0.2-0.4  s0.1-0.1,0.2-0.2s0.1-0.1,0.2-0.1C69.3,99.1,69.5,99,69.7,98.8L69.7,98.8z M91,92.1c-0.1,0.2-0.4,0.2-0.6,0.4c0,0,0,0.1-0.1,0.1  c-0.1,0-0.2,0.1-0.3,0.2c-0.2,0-0.2,0.2-0.4,0.2c0.1,0,0.2-0.1,0.2-0.2c0.2,0,0.3-0.1,0.5-0.2l0,0C90.5,92.4,90.7,92.2,91,92.1  C90.9,92.1,90.9,92.1,91,92.1L91,92.1z M91.2,91.5L91.2,91.5c0,0.5-0.5,0.6-0.8,0.9c-0.2,0.1-0.4,0.3-0.6,0.4c-0.1,0-0.1,0-0.1,0  c-0.1,0.2-0.3,0.2-0.4,0.3s-0.1,0-0.1,0c-0.2,0.2-0.5,0.2-0.6,0.4l-0.2,0.2c0,0.1,0.1,0,0,0.1c-0.1,0.1-0.1,0.1-0.2,0.2  c0.1,0,0.2-0.1,0.4-0.1s0-0.1-0.1-0.1s0.2-0.1,0.2-0.1c0.1,0,0.1,0,0.2,0c-0.1,0-0.2,0-0.2,0.1c0.2,0,0.4-0.2,0.6-0.4  c0.4-0.2,0.8-0.4,1.1-0.6c0.1-0.1,0.2-0.2,0.3-0.2c0,0.2-0.1,0.2-0.3,0.2c-0.1,0.1-0.3,0.3-0.5,0.4l-0.8,0.4  c-0.1,0.1-0.1,0.1-0.1,0.2s-0.3,0.1-0.4,0.2c0.1,0,0.3-0.1,0.4-0.2c0.3-0.2,0.7-0.5,1.1-0.7c-0.2,0.2-0.4,0.3-0.7,0.4  c-0.1,0-0.2,0.2-0.2,0.2s-0.5,0.2-0.5,0.3c-0.2,0.1-0.4,0.2-0.6,0.3c-0.1,0-0.2,0.1-0.2,0.2c-0.1,0-0.1,0.1-0.1,0.1l-0.2,0.1  c-0.1,0-0.1,0.1-0.2,0.1c-0.1,0-0.2,0.1-0.2,0.1c0,0.1-0.1,0.1-0.2,0.2c-0.1,0-0.2,0.1-0.2,0.1c-0.1,0.1-0.2,0.1-0.3,0.1  c-0.1,0.1-0.2,0.1-0.2,0.2c-0.1,0-0.2,0.1-0.3,0.2c-0.1,0.1-0.3,0.1-0.3,0.3c-0.2,0.1-0.3,0.1-0.5,0.3c-0.1,0,0,0,0-0.1  c-0.2,0.1-0.2,0.1-0.3,0.2s0,0,0,0s-0.1,0.1-0.1,0.2s0.1-0.1,0.2-0.1c0.1,0,0.2-0.1,0.3-0.2c0.2-0.1,0.3-0.2,0.5-0.3  c0.2-0.1,0.3-0.3,0.5-0.3c0,0.2-0.2,0.2-0.2,0.2c-0.1,0.1-0.2,0.2-0.3,0.2c-0.1,0.1-0.3,0.1-0.4,0.2c-0.1,0-0.2,0.1-0.3,0.1  s-0.1,0-0.1,0s0,0-0.1,0.1s0,0-0.1,0.1c-0.1,0-0.1,0-0.2,0.1c-0.1,0-0.1,0.1-0.2,0.1s-0.2,0.1-0.3,0.1c0,0.1-0.1,0.1-0.2,0.2  c0,0-0.1,0-0.1,0v0.1v-0.1c0,0-0.1,0.1-0.1,0.1s0,0,0,0l0,0c0,0,0,0.1,0,0.1c-0.1,0-0.2,0-0.2,0.1c-0.1-0.1-0.1,0-0.2,0.1  s-0.1,0-0.1,0.2c-0.3,0.1-0.5,0.3-0.7,0.5c-0.1,0-0.1,0-0.1,0c0,0.1-0.1,0.1-0.1,0.2v-0.1h-0.2c0,0,0,0,0,0.1s-0.1,0.1-0.1,0.1  s0,0,0,0.1s-0.1-0.1-0.1,0s0,0.1,0,0.1s-0.4,0.1-0.5,0.3s0,0,0,0.1c-0.4,0.3-0.9,0.6-1.3,1c-0.1,0.1-0.2,0.2-0.3,0.3  c0,0-0.1,0.1-0.2,0.1c-0.2,0.1-0.3,0.2-0.3,0.4c-0.3,0.1-0.5,0.3-0.7,0.6c-0.1,0.1-0.2,0.3-0.3,0.3c-0.2,0.1-0.3,0.2-0.4,0.4  c-0.2,0-0.2,0-0.2,0h-0.2c-0.4,0-0.5-0.4-0.9-0.4l-0.2-0.2c0-0.1,0-0.1,0-0.2c0.4-0.5,0.8-1.1,1-1.8c0.7-1.2,1.4-2.4,2.1-3.6  c0.4-0.6,0.8-1.1,1.1-1.7c0.2-0.2,0.3-0.5,0.5-0.7c0.2-0.3,0.5-0.6,0.6-0.9c0.1-0.1,0.2-0.2,0.4-0.2c0.2,0.2,0.9,0.8,1.2,1  c0.1,0.2,0.4,0.4,0.5,0.7s-0.2,0.4-0.3,0.4s-0.2,0.1-0.2,0.2s-0.1,0-0.2,0.1S83,95,82.8,95c-0.2,0.2-0.3,0.4-0.4,0.5  c-0.3,0.2-0.5,0.5-0.7,0.8c-0.1,0.1-0.1,0.2-0.2,0.2c0-0.2,0-0.4-0.2-0.4s-0.1,0.2-0.2,0.2c-0.1,0.2-0.1,0.2-0.2,0.3  c0,0.1-0.1,0.1-0.2,0.1c0,0,0,0.1-0.1,0.1s0,0,0.1,0c-0.2,0.1-0.3,0.3-0.4,0.5c-0.1,0-0.2,0-0.2,0.1c0,0,0.1,0.1,0.1,0.1  s-0.2,0.2-0.2,0.3s-0.1,0-0.1,0.1c0.3-0.1,0.6-0.4,0.9-0.6l0.4-0.2c0.1-0.1,0.2-0.2,0.3-0.2h0.1c0,0,0.3-0.3,0.4-0.2  c0.1-0.1,0.1-0.2,0.2-0.2s0.2,0,0.2-0.1s0.2-0.1,0.3-0.2c0.4-0.2,0.7-0.4,1-0.6c0.3-0.2,0.7-0.4,1-0.6s0.9-0.5,1.3-0.8  c0.2-0.1,0.5-0.2,0.7-0.4c0.1-0.2,0.2-0.2,0.3-0.2s0.2-0.2,0.3-0.2c0.8-0.5,1.6-1,2.3-1.6h0.1c0.4-0.2,0.7-0.6,0.8-1  c0.1-0.2,0.2-0.5,0.3-0.7c0.1,0,0.1-0.1,0.2,0c0,0.1,0,0.3,0,0.4c0,0.1,0,0.2,0,0.3c0,0.3,0.1,0.7-0.1,0.8L91.2,91.5z M89.7,92  c-0.4,0.3-0.8,0.6-1.2,0.8c0-0.1,0.1-0.1,0.1-0.1c0.3-0.1,0.5-0.4,0.8-0.5C89.5,92.1,89.6,92,89.7,92c0-0.2,0.2-0.3,0.3-0.3l0,0v0.1  C89.9,91.8,89.8,91.9,89.7,92L89.7,92z M90.1,91.8c0,0,0-0.1,0-0.1S90.1,91.7,90.1,91.8c0,0,0.2-0.2,0.2-0.1s0,0.1,0,0.1s0,0,0.1,0  s-0.1,0-0.1,0.2s-0.2,0.2-0.2,0.3s-0.2,0-0.3,0.1l-0.2,0.1c-0.1,0.2-0.2,0.2-0.4,0.3l-0.1,0.1c0,0-0.1,0-0.2,0.1s-0.3,0.1-0.3,0.2  c-0.2,0-0.3,0.1-0.4,0.2c-0.4,0.2-0.8,0.4-1.1,0.6c-0.1,0-0.1,0-0.1,0c-0.1,0.1-0.3,0.2-0.4,0.3v-0.1c0,0-0.2,0-0.3,0  c-0.1,0.1-0.2,0.1-0.3,0.2c0,0,0,0.1-0.1,0.2c-0.4,0-0.6,0.4-1,0.5l0,0c0,0-0.1,0-0.3,0c0.7-0.5,1.5-0.9,2.3-1.2  c0.1-0.1,0.2-0.2,0.4-0.2c0,0.1-0.2,0.1-0.2,0.1l-0.1,0.2c-0.1,0-0.1,0-0.2,0.1c0,0.1,0,0.1,0,0.2c0.1,0,0.2-0.1,0.2-0.2h0.1  c0,0,0.1-0.1,0.1-0.2c0.2,0,0.2-0.1,0.3-0.1h0.1c0,0,0-0.1,0.1-0.2s0,0-0.1,0s0.1-0.1,0.1-0.1c0.1-0.2,0.3-0.1,0.4-0.3  c0.1,0,0.2,0,0.3,0s0.2,0,0.2-0.2c0.2-0.1,0.4-0.2,0.5-0.4c0,0,0,0,0-0.1c0,0,0,0,0.1,0s0.1,0,0.1-0.1s0,0.1-0.1,0.1  C89.6,92,89.8,91.9,90.1,91.8L90.1,91.8z M87.8,94c0.1-0.1,0.3-0.1,0.4-0.2l0,0c0,0-0.1,0.1-0.1,0.1s-0.2,0-0.3,0.2h0.1  c-0.1,0-0.2,0.1-0.3,0.2c-0.2,0.2-0.5,0.3-0.8,0.4c-0.1,0-0.2,0.2-0.3,0.2s-0.1,0,0-0.1s0.1,0,0.1-0.1s0,0,0,0s0.2-0.2,0.3-0.1  s-0.1-0.1,0-0.1c0.2-0.2,0.5-0.3,0.8-0.4C87.7,94.2,87.8,94.1,87.8,94C87.9,94.1,87.8,94.1,87.8,94L87.8,94z M87.8,94.3  c0.3-0.1,0.5-0.3,0.8-0.4c0,0-0.1,0.1-0.1,0.1l-0.1,0.1c-0.2,0.1-0.3,0.2-0.4,0.3S87.8,94.4,87.8,94.3  C87.7,94.4,87.8,94.4,87.8,94.3L87.8,94.3z M86.5,94.2C86.6,94.2,86.6,94.2,86.5,94.2c0,0.1-0.1,0.1-0.2,0.2  c-0.1,0.1-0.2,0.2-0.3,0.2s0,0,0-0.1s0.1-0.1,0.2,0C86.2,94.4,86.4,94.4,86.5,94.2C86.7,94.3,86.5,94.3,86.5,94.2L86.5,94.2z   M86.5,94.8L86.5,94.8c0,0.1-0.1,0.1-0.1,0.2c-0.2,0-0.3,0.2-0.5,0.2C86,95,86.3,95,86.5,94.8L86.5,94.8z M84.4,95.8  c0.2-0.2,0.5-0.4,0.8-0.5c-0.1,0.1-0.3,0.2-0.4,0.3C84.6,95.6,84.5,95.8,84.4,95.8z M83.9,96.9c0.3-0.2,0.6-0.4,1-0.5  c0,0-0.1,0-0.1,0.1c-0.3,0.1-0.3,0.3-0.6,0.3C84.1,96.8,84.1,96.9,83.9,96.9L83.9,96.9z M87.3,95c-0.1,0.1-0.3,0.3-0.5,0.3h-0.1  c-0.1,0.1-0.2,0.1-0.2,0.2C86.8,95.3,87,95.1,87.3,95z"/>
<g>
	<path class="st3" d="M190.7,89.1c0,1.1-0.9,2-2,2c-1.1,0-2-0.9-2-2c0-1.1,0.9-2,2-2C189.9,87.2,190.7,88.1,190.7,89.1z M187.2,89.1   c0,0.9,0.6,1.6,1.5,1.6c0.9,0,1.5-0.7,1.5-1.6c0-0.9-0.6-1.6-1.5-1.6C187.8,87.6,187.2,88.3,187.2,89.1z M188.4,90.2H188v-2   c0.2,0,0.4-0.1,0.8-0.1c0.4,0,0.5,0.1,0.7,0.1c0.1,0.1,0.2,0.2,0.2,0.4c0,0.2-0.2,0.4-0.4,0.5v0c0.2,0.1,0.3,0.2,0.4,0.5   c0.1,0.3,0.1,0.4,0.1,0.5h-0.5c-0.1-0.1-0.1-0.3-0.2-0.5c0-0.2-0.2-0.3-0.4-0.3h-0.2V90.2z M188.4,89.1h0.2c0.3,0,0.5-0.1,0.5-0.3   c0-0.2-0.1-0.3-0.4-0.3c-0.1,0-0.2,0-0.3,0V89.1z"/>
</g>
</svg>